<svg xmlns="http://www.w3.org/2000/svg" viewBox="0 0 516.085 58.186"><style>.c2{fill:#f9a220}.c3{fill:url(#SVGID_1_)}.c4{opacity:.5;fill:url(#SVGID_2_)}.c5{fill:url(#SVGID_3_)}.c8{fill:#929497}.dark .c6{fill:#fff}</style><g id="Logo"><path class="c6" d="M119.272 3.316c0 .558-.029 1.059-.088 1.472-.068.425-.161.757-.296 1.012a1.5 1.5 0 0 1-.487.558 1.243 1.243 0 0 1-.655.177h-16.289v50.214c0 .245-.063.449-.181.63-.119.178-.33.322-.626.423a7.134 7.134 0 0 1-1.184.275c-.494.064-1.113.11-1.856.11-.715 0-1.329-.047-1.836-.11a7.14 7.14 0 0 1-1.213-.275c-.296-.101-.5-.245-.622-.423a1.107 1.107 0 0 1-.178-.63V6.534H77.464c-.238 0-.449-.058-.648-.177a1.317 1.317 0 0 1-.466-.558c-.122-.254-.219-.587-.296-1.012a8.8 8.8 0 0 1-.106-1.472c0-.57.034-1.07.106-1.5.077-.438.174-.787.296-1.054.119-.263.275-.462.466-.584A1.28 1.28 0 0 1 77.464 0h40.282c.241 0 .456.064.655.178.187.122.352.322.487.584.135.266.228.616.296 1.054.059.43.088.929.088 1.5zm49.414 53.432c0 .245-.042.449-.144.63-.084.178-.275.331-.575.439-.301.127-.714.211-1.252.277a20.77 20.77 0 0 1-2.149.092c-.778 0-1.412-.034-1.903-.092-.49-.065-.885-.161-1.184-.294a1.527 1.527 0 0 1-.694-.561 3.281 3.281 0 0 1-.431-.898l-5.32-13.648a52.507 52.507 0 0 0-1.946-4.273c-.673-1.294-1.472-2.411-2.398-3.357a9.792 9.792 0 0 0-3.265-2.188c-1.252-.524-2.757-.786-4.517-.786h-5.152v24.657a.99.99 0 0 1-.203.63c-.135.178-.338.322-.626.423a6.48 6.48 0 0 1-1.158.275 14.56 14.56 0 0 1-1.862.11c-.744 0-1.361-.047-1.852-.11a7.172 7.172 0 0 1-1.193-.275c-.296-.101-.498-.245-.626-.423a1.144 1.144 0 0 1-.173-.63V3.138c0-1.167.301-1.979.918-2.444.609-.46 1.255-.694 1.944-.694h12.304c1.463 0 2.681.043 3.65.114.968.069 1.843.161 2.618.251 2.237.384 4.212.997 5.93 1.831 1.714.833 3.156 1.891 4.323 3.18a12.81 12.81 0 0 1 2.614 4.407c.583 1.649.872 3.482.872 5.478 0 1.947-.263 3.68-.787 5.219-.519 1.532-1.268 2.889-2.254 4.069a14.936 14.936 0 0 1-3.536 3.067c-1.37.87-2.91 1.597-4.614 2.194a10.79 10.79 0 0 1 2.601 1.582 14.124 14.124 0 0 1 2.17 2.306c.668.901 1.302 1.93 1.908 3.101a50.655 50.655 0 0 1 1.785 3.937l5.19 12.748c.419 1.075.685 1.833.808 2.259.111.435.179.768.179 1.005zm-11.594-40.68c0-2.267-.508-4.187-1.523-5.752-1.015-1.561-2.716-2.691-5.101-3.376-.749-.21-1.59-.357-2.529-.452-.943-.089-2.17-.131-3.693-.131h-6.492v19.515h7.521c2.03 0 3.776-.251 5.261-.741 1.476-.496 2.707-1.18 3.688-2.061a8.044 8.044 0 0 0 2.174-3.108c.462-1.192.694-2.493.694-3.894zm63.173 20.15c0 3.463-.498 6.557-1.514 9.272-1.011 2.723-2.458 5.016-4.344 6.897-1.878 1.878-4.17 3.299-6.873 4.268-2.694.978-5.769 1.461-9.203 1.461-3.148 0-6.006-.456-8.595-1.367-2.579-.909-4.8-2.253-6.653-4.034-1.849-1.777-3.27-4.006-4.268-6.667-.998-2.676-1.497-5.76-1.497-9.249V1.413c0-.237.055-.437.173-.622.118-.174.325-.312.613-.414a6.39 6.39 0 0 1 1.151-.263c.466-.077 1.083-.114 1.849-.114.706 0 1.307.037 1.806.114.495.069.888.161 1.167.263.275.102.478.24.597.414.118.185.177.385.177.622v34.45c0 2.648.321 4.952.965 6.916.651 1.971 1.582 3.607 2.799 4.913a11.54 11.54 0 0 0 4.408 2.955c1.713.658 3.646.993 5.795.993 2.199 0 4.161-.318 5.874-.976 1.725-.64 3.176-1.608 4.37-2.902 1.188-1.296 2.094-2.897 2.723-4.81.639-1.898.952-4.131.952-6.689V1.413a1.1 1.1 0 0 1 .178-.622c.118-.174.322-.312.613-.414a6.463 6.463 0 0 1 1.167-.263c.486-.077 1.1-.114 1.832-.114.706 0 1.298.037 1.78.114a5.78 5.78 0 0 1 1.146.263c.284.102.486.24.621.414.132.185.191.385.191.622v34.805zm43.425 5.257c0 2.657-.495 5.018-1.468 7.082a15.214 15.214 0 0 1-4.057 5.255c-1.733 1.444-3.772 2.53-6.115 3.258-2.348.724-4.864 1.092-7.576 1.092-1.895 0-3.645-.157-5.256-.488-1.62-.316-3.059-.705-4.327-1.174-1.265-.466-2.331-.944-3.189-1.438-.858-.496-1.45-.915-1.781-1.266-.343-.35-.592-.799-.748-1.331-.161-.541-.242-1.264-.242-2.166 0-.638.029-1.167.089-1.59.055-.423.144-.767.262-1.029.114-.262.262-.443.431-.546.177-.101.385-.151.613-.151.406 0 .985.251 1.726.741.744.498 1.695 1.04 2.863 1.614 1.163.589 2.568 1.135 4.208 1.633 1.646.512 3.545.77 5.698.77 1.628 0 3.126-.211 4.479-.655 1.353-.439 2.518-1.057 3.498-1.853a8.184 8.184 0 0 0 2.245-2.947c.516-1.163.778-2.487.778-3.972 0-1.606-.363-2.977-1.082-4.107-.732-1.137-1.688-2.132-2.885-2.992a25.185 25.185 0 0 0-4.086-2.354 1099.15 1099.15 0 0 0-4.69-2.186 48.416 48.416 0 0 1-4.674-2.467 19.698 19.698 0 0 1-4.057-3.185c-1.197-1.223-2.166-2.661-2.91-4.301-.741-1.642-1.112-3.617-1.112-5.913 0-2.364.431-4.462 1.294-6.31a12.85 12.85 0 0 1 3.577-4.653c1.528-1.248 3.347-2.208 5.458-2.859 2.105-.66 4.389-.986 6.83-.986 1.253 0 2.508.114 3.781.325 1.261.221 2.457.516 3.577.876 1.122.364 2.117.774 2.995 1.218.863.452 1.447.82 1.718 1.1.28.275.461.49.545.651.094.161.166.368.221.61.058.249.106.546.131.9.029.347.05.796.05 1.345 0 .529-.03.994-.072 1.401-.039.41-.11.757-.199 1.032-.085.27-.212.482-.369.609a.866.866 0 0 1-.544.198c-.327 0-.82-.207-1.511-.617a50.947 50.947 0 0 0-2.508-1.375c-.99-.509-2.166-.969-3.511-1.396-1.358-.418-2.881-.635-4.568-.635-1.568 0-2.94.217-4.102.635-1.163.427-2.128.99-2.88 1.678a6.733 6.733 0 0 0-1.705 2.487 8.38 8.38 0 0 0-.567 3.063c0 1.569.364 2.919 1.092 4.06.728 1.137 1.695 2.141 2.901 3.011a25.893 25.893 0 0 0 4.129 2.397c1.543.728 3.117 1.468 4.715 2.214a61.558 61.558 0 0 1 4.716 2.439 20.155 20.155 0 0 1 4.132 3.144 14.43 14.43 0 0 1 2.914 4.284c.753 1.646 1.125 3.583 1.125 5.82zm47.812-38.167c0 .566-.03 1.057-.089 1.468-.064.419-.156.76-.291 1.01a1.38 1.38 0 0 1-.492.558 1.184 1.184 0 0 1-.649.177H293.72v50.13c0 .238-.058.449-.181.623-.116.181-.327.325-.624.43a6.774 6.774 0 0 1-1.183.262c-.496.077-1.114.116-1.853.116-.719 0-1.332-.039-1.831-.116a6.644 6.644 0 0 1-1.206-.262c-.3-.105-.507-.249-.629-.43a1.107 1.107 0 0 1-.179-.623V6.521h-16.261c-.236 0-.453-.054-.648-.177a1.245 1.245 0 0 1-.469-.558 4.477 4.477 0 0 1-.293-1.01 8.601 8.601 0 0 1-.113-1.468c0-.563.041-1.071.113-1.492.078-.438.179-.791.293-1.054.119-.263.275-.462.469-.584.196-.114.412-.178.648-.178h40.208c.238 0 .458.064.649.178.19.122.364.322.492.584.135.263.227.616.291 1.054.059.422.089.929.089 1.492z"></path><path class="c8" d="M356.234 16.96c0 2.897-.477 5.507-1.438 7.838-.958 2.326-2.317 4.314-4.095 5.947-1.773 1.646-3.951 2.915-6.535 3.808-2.581.898-5.654 1.341-9.243 1.341h-6.575v20.855c0 .245-.073.449-.204.63-.135.178-.341.322-.625.423a6.36 6.36 0 0 1-1.169.275c-.485.064-1.106.11-1.851.11-.744 0-1.367-.047-1.852-.11a6.825 6.825 0 0 1-1.193-.275c-.303-.101-.508-.245-.626-.423a1.085 1.085 0 0 1-.179-.63V3.316c0-1.193.313-2.042.94-2.554.627-.508 1.323-.762 2.106-.762h12.393c1.258 0 2.454.051 3.607.161 1.145.101 2.508.325 4.065.669 1.57.342 3.169.987 4.797 1.924a15.14 15.14 0 0 1 4.136 3.468c1.138 1.374 2.009 2.96 2.618 4.767.613 1.806.923 3.794.923 5.971zm-8.104.626c0-2.356-.44-4.322-1.324-5.899-.876-1.583-1.966-2.767-3.265-3.541-1.299-.774-2.64-1.269-4.023-1.475a28.007 28.007 0 0 0-4.056-.313h-7.114v23.224h6.937c2.326 0 4.259-.299 5.793-.896 1.536-.6 2.829-1.418 3.87-2.48 1.044-1.06 1.838-2.326 2.378-3.802.533-1.476.804-3.084.804-4.818zm26.316 39.125c0 .236-.058.447-.178.621s-.326.318-.626.419c-.296.107-.684.194-1.179.271-.482.073-1.104.107-1.844.107-.711 0-1.32-.034-1.823-.107-.508-.077-.91-.165-1.201-.271-.296-.101-.508-.245-.627-.419a1.118 1.118 0 0 1-.174-.621V1.426c0-.241.068-.45.195-.626.135-.174.355-.318.672-.415a6.626 6.626 0 0 1 1.197-.271A12.458 12.458 0 0 1 370.619 0c.74 0 1.361.043 1.844.114.495.069.884.165 1.179.271.3.097.507.241.626.415.12.176.178.384.178.626v55.285zm44.254-1.878c0 .587-.026 1.09-.084 1.492-.061.402-.157.754-.297 1.032-.13.282-.291.496-.486.621-.19.136-.422.208-.698.208h-25.602c-.685 0-1.327-.232-1.941-.698-.609-.462-.914-1.277-.914-2.44V1.434c0-.237.052-.449.175-.626.123-.178.329-.322.622-.423a6.647 6.647 0 0 1 1.215-.271A13.257 13.257 0 0 1 392.527 0c.741 0 1.358.043 1.852.114.495.073.885.165 1.185.271.299.101.508.245.626.423.122.178.182.39.182.626v50.081h20.763c.276 0 .508.067.698.204.195.131.356.327.486.58.14.254.237.587.297 1.01.058.415.084.922.084 1.524zm52.438-26.458c0 4.552-.54 8.668-1.615 12.331-1.075 3.658-2.681 6.772-4.818 9.347-2.132 2.566-4.813 4.543-8.035 5.923-3.223 1.382-6.992 2.07-11.285 2.07-4.243 0-7.912-.63-11.006-1.889-3.091-1.27-5.654-3.104-7.673-5.521-2.017-2.407-3.523-5.401-4.509-8.975-.987-3.576-1.489-7.686-1.489-12.33 0-4.445.545-8.481 1.616-12.122 1.074-3.626 2.69-6.715 4.843-9.259 2.149-2.546 4.835-4.499 8.063-5.88C438.457.694 442.212 0 446.513 0c4.154 0 7.77.626 10.853 1.874 3.074 1.252 5.639 3.075 7.691 5.468 2.045 2.399 3.567 5.363 4.571 8.89 1.002 3.529 1.51 7.576 1.51 12.143zm-7.93.522c0-3.198-.288-6.168-.851-8.917-.57-2.74-1.515-5.122-2.833-7.144-1.318-2.016-3.084-3.598-5.287-4.731-2.205-1.126-4.936-1.696-8.185-1.696-3.248 0-5.977.612-8.184 1.83-2.204 1.223-3.994 2.843-5.372 4.878-1.382 2.038-2.366 4.413-2.96 7.125-.597 2.721-.892 5.575-.892 8.565 0 3.312.274 6.362.828 9.158.55 2.779 1.481 5.186 2.782 7.202 1.309 2.023 3.059 3.596 5.247 4.709 2.189 1.12 4.939 1.679 8.255 1.679 3.273 0 6.031-.61 8.268-1.833 2.229-1.221 4.031-2.863 5.394-4.943 1.36-2.081 2.335-4.485 2.913-7.207.58-2.732.877-5.627.877-8.675zm52.877-25.581c0 .558-.03 1.059-.093 1.472-.055.425-.156.757-.293 1.012-.132.25-.295.436-.487.558a1.212 1.212 0 0 1-.646.177h-16.287v50.214c0 .245-.064.449-.192.63-.113.178-.321.322-.62.423-.3.103-.693.198-1.189.275-.485.064-1.108.11-1.858.11a14.82 14.82 0 0 1-1.831-.11 6.953 6.953 0 0 1-1.208-.275c-.298-.101-.508-.245-.625-.423a1.1 1.1 0 0 1-.18-.63V6.534h-16.3c-.229 0-.444-.058-.639-.177a1.322 1.322 0 0 1-.476-.558 4.487 4.487 0 0 1-.289-1.012 8.267 8.267 0 0 1-.11-1.472c0-.57.034-1.07.11-1.5a4.94 4.94 0 0 1 .289-1.054c.121-.263.281-.462.476-.584.195-.113.41-.177.639-.177h40.289c.238 0 .45.064.646.178.193.122.355.322.487.584.137.266.237.616.293 1.054.064.43.094.929.094 1.5z"></path><path class="c2" d="M0 .012v25.665s19.433 9.25 29.297 25.788c0 0 4.352-36.523 28.785-51.453H0z"></path><linearGradient id="SVGID_1_" gradientUnits="userSpaceOnUse" x1="29.041" y1="58.186" x2="29.041" y2="25.006"><stop offset="0" stop-color="#e37a27"></stop><stop offset=".472" stop-color="#f9a220"></stop></linearGradient><path class="c3" d="M0 46.824v11.363h26.11c0-.001-9.947-10.593-26.11-11.363zm33.118 11.362h24.964v-33.18c-14.128 3.827-24.964 33.18-24.964 33.18z"></path><linearGradient id="SVGID_2_" gradientUnits="userSpaceOnUse" x1="28.926" y1="22.669" x2="28.926" y2=".394"><stop offset="0" stop-color="#fff"></stop><stop offset="1" stop-color="#f9a220"></stop></linearGradient><path class="c4" d="M.388.401L57.465.395s-9.366 3.308-19.46 21.915c0 0-22.076 2.246-37.564-4.496L.388.401z"></path><linearGradient id="SVGID_3_" gradientUnits="userSpaceOnUse" x1="29.041" y1=".242" x2="29.041" y2="57.957"><stop offset="0" stop-color="#4a484a"></stop><stop offset="1"></stop></linearGradient><path class="c5" d="M29.297 51.466C19.433 34.927 0 25.677 0 25.677v21.146c16.128.794 26.11 11.363 26.11 11.363h7.008s10.836-29.353 24.964-33.18V.012l-.074.045C33.641 15.015 29.297 51.466 29.297 51.466z"></path></g></svg>